<svg t="1611286686445" class="icon" viewBox="0 0 1024 1024" version="1.1" xmlns="http://www.w3.org/2000/svg" p-id="1134" width="128" height="128"><path d="M512 677c-91 0-165-74-165-165s74-165 165-165 165 74 165 165-74 165-165 165z m0-240c-41.4 0-75 33.6-75 75s33.6 75 75 75 75-33.6 75-75-33.6-75-75-75z" fill="#bfbfbf" p-id="1135"></path><path d="M512 100.9c5.3 0 10.4 1.4 15 4l330 190.5c9.3 5.3 15 15.3 15 26v381c0 10.7-5.7 20.6-15 26L527 919c-4.5 2.6-9.7 4-15 4s-10.4-1.4-15-4L167 728.5c-9.3-5.3-15-15.3-15-26v-381c0-10.7 5.7-20.6 15-26L497 105c4.6-2.7 9.7-4.1 15-4.1m0-90c-20.7 0-41.4 5.4-60 16.1L122 217.6c-37.1 21.4-60 61-60 103.9v381c0 42.9 22.9 82.5 60 103.9L452 997c18.6 10.7 39.3 16.1 60 16.1s41.4-5.4 60-16.1l330-190.5c37.1-21.4 60-61.1 60-103.9v-381c0-42.9-22.9-82.5-60-103.9L572 27c-18.6-10.7-39.3-16.1-60-16.1z" fill="#bfbfbf" p-id="1136"></path></svg>